<svg width="16" height="12" viewBox="0 0 16 12" fill="none" xmlns="http://www.w3.org/2000/svg">
<path d="M13.625 0.59375C13.6875 0.53125 13.75 0.5 13.875 0.5C13.9688 0.5 14.0625 0.53125 14.1562 0.59375L15.0312 1.5C15.0938 1.5625 15.1562 1.65625 15.1562 1.75C15.1562 1.875 15.0938 1.96875 15.0312 2.03125L5.65625 11.4062C5.59375 11.4688 5.5 11.5 5.40625 11.5C5.28125 11.5 5.1875 11.4688 5.125 11.4062L0.96875 7.21875C0.875 7.15625 0.84375 7.09375 0.84375 6.96875C0.84375 6.875 0.875 6.78125 0.96875 6.6875L1.84375 5.8125C1.90625 5.75 2 5.6875 2.125 5.6875C2.21875 5.6875 2.3125 5.75 2.375 5.8125L5.40625 8.84375L13.625 0.59375Z" fill="#BE1E2D"/>
</svg>
