<svg width="56" height="64" viewBox="0 0 56 64" fill="none" xmlns="http://www.w3.org/2000/svg">
<path d="M28 32C36.875 32 44 24.875 44 16C44 7.125 36.875 0 28 0C19.125 0 12 7.125 12 16C12 24.875 19.125 32 28 32ZM28 2C35.75 2 42 8.25 42 16C42 23.75 35.75 30 28 30C20.25 30 14 23.75 14 16C14 8.25 20.25 2 28 2ZM40.25 38.875C39.75 38.75 39.25 39 39 39.5L31.25 62H24.75L17 39.5C16.75 39 16.25 38.75 15.75 38.875C6.5 41.5 0 49.75 0 59C0 61.75 2.375 64 5.125 64H50.875C53.625 64 56 61.75 56 59C56 49.75 49.5 41.5 40.25 38.875ZM5.125 62C3.375 62 2 60.625 2 59C2 50.875 7.5 43.625 15.375 41L22.625 62H5.125ZM50.875 62H33.375L40.625 41C48.5 43.625 54 50.875 54 59C54 60.625 52.625 62 50.875 62ZM33.875 36.5C33.75 36.25 33.375 36 33 36H23C22.625 36 22.25 36.25 22.125 36.5C22 36.75 22 37.25 22.25 37.625L26.875 44.125L23.125 51.5C22.875 52 23 52.625 23.5 52.875C24 53.125 24.625 53 24.875 52.5L28 46.25L31.125 52.5C31.25 52.75 31.625 53 32 53C32.125 53 32.25 53 32.5 52.875C33 52.625 33.125 52 32.875 51.5L29.125 44.125L33.75 37.625C34 37.25 34.125 36.875 33.875 36.5ZM28 42.25L25 38H31L28 42.25Z" fill="#A97C50"/>
</svg>
