<svg width="101" height="80" viewBox="0 0 101 80" fill="none" xmlns="http://www.w3.org/2000/svg">
<path d="M87.5312 30H75.5C74.5625 30 73.625 30.1562 72.6875 30.3125C72.0625 30.4688 71.5938 31.0938 71.75 31.875C71.9062 32.5 72.5312 32.9688 73.3125 32.8125C73.9375 32.6562 74.7188 32.5 75.5 32.5H87.5312C93.3125 32.5 98 37.5 98 43.75C98 44.375 97.5312 45 96.9062 45H70.5C69.875 45 69.25 45.625 69.25 46.25C69.25 46.875 69.875 47.5 70.5 47.5H96.9062C98.9375 47.5 100.5 45.7812 100.5 43.75C100.5 36.0938 94.7188 30 87.5312 30ZM80.5 25C87.375 25 93 19.375 93 12.5C93 5.625 87.375 0 80.5 0C73.625 0 68 5.625 68 12.5C68 19.375 73.625 25 80.5 25ZM80.5 2.5C85.9688 2.5 90.5 7.03125 90.5 12.5C90.5 17.9688 85.9688 22.5 80.5 22.5C75.0312 22.5 70.5 17.9688 70.5 12.5C70.5 7.03125 75.0312 2.5 80.5 2.5ZM20.5 25C27.375 25 33 19.375 33 12.5C33 5.625 27.375 0 20.5 0C13.625 0 8 5.625 8 12.5C8 19.375 13.625 25 20.5 25ZM20.5 2.5C25.9688 2.5 30.5 7.03125 30.5 12.5C30.5 17.9688 25.9688 22.5 20.5 22.5C15.0312 22.5 10.5 17.9688 10.5 12.5C10.5 7.03125 15.0312 2.5 20.5 2.5ZM31.75 46.25C31.75 45.625 31.125 45 30.5 45H4.09375C3.46875 45 3 44.375 3 43.75C3 37.5 7.6875 32.5 13.4688 32.5H25.5C26.2812 32.5 27.0625 32.6562 27.6875 32.8125C28.3125 32.9688 29.0938 32.5 29.25 31.875C29.4062 31.0938 28.9375 30.4688 28.3125 30.3125C27.375 30.1562 26.4375 30 25.5 30H13.4688C6.28125 30 0.5 36.0938 0.5 43.75C0.5 45.7812 2.0625 47.5 4.09375 47.5H30.5C31.125 47.5 31.75 46.875 31.75 46.25ZM50.5 50C59.4062 50 66.75 42.6562 66.75 33.75C66.75 24.8438 59.4062 17.5 50.5 17.5C41.4375 17.5 34.25 24.8438 34.25 33.75C34.25 42.6562 41.4375 50 50.5 50ZM50.5 20C58 20 64.25 26.0938 64.25 33.75C64.25 41.4062 58 47.5 50.5 47.5C43 47.5 36.75 41.4062 36.75 33.75C36.75 26.0938 42.8438 20 50.5 20ZM58.3125 55H42.6875C30.5 55 20.5 64.375 20.5 75.7812C20.5 78.125 22.5312 80 24.875 80H76.125C78.4688 80 80.5 78.125 80.5 75.7812C80.5 64.375 70.5 55 58.3125 55ZM76.125 77.5H24.875C23.9375 77.5 23 76.7188 23 75.7812C23 65.7812 31.9062 57.5 42.6875 57.5H58.3125C69.0938 57.5 78 65.7812 78 75.7812C78 76.7188 77.0625 77.5 76.125 77.5Z" fill="#A97C50"/>
</svg>
