<svg width="72" height="64" viewBox="0 0 72 64" fill="none" xmlns="http://www.w3.org/2000/svg">
<path d="M31 20H38V31C38 31.5 38.5 32 39 32C39.5 32 40 31.5 40 31V19C40 8.5 31.5 0 21 0H13C12.5 0 12 0.5 12 1C12 11.5 20.5 20 31 20ZM21 2C30 2 37.5 9.125 38 18H31C22 18 14.5 10.875 14 2H21ZM43.25 12.625C46.25 8.375 50.75 6 55.625 6H62C61.5 14.875 54.625 22 46.375 22H44C43.5 22 43 22.5 43 23C43 23.5 43.5 24 44 24H46.375C56.125 24 64 15.5 64 5C64 4.5 63.5 4 63 4H55.625C50.125 4 45 6.75 41.625 11.375C41.375 11.875 41.375 12.5 41.875 12.75C42.375 13.125 43 13 43.25 12.625ZM70.875 40.5C69.875 39.125 68.5 38.25 66.875 38.125C65.25 37.875 63.75 38.25 62.375 39.125L47.75 50H33C32.5 50 32 49.5 32 49C32 48.5 32.5 48 33 48H42.75C45.375 48 47.5 46.25 47.875 43.875C48.125 42.375 47.75 40.875 46.75 39.75C45.875 38.625 44.5 38 43 38H23C19.375 38 15.875 39.25 13.125 41.5L7.625 46H1C0.5 46 0 46.5 0 47C0 47.5 0.5 48 1 48H8.25L14.375 43.125C16.75 41.125 19.875 40 23 40H43C43.875 40 44.75 40.375 45.25 41.125C45.875 41.75 46.125 42.625 46 43.5C45.75 44.875 44.375 46 42.75 46H33C31.375 46 30 47.375 30 49C30 50.625 31.375 52 33 52H48.375L63.625 40.75C64.5 40.125 65.5 39.875 66.625 40C67.625 40.25 68.625 40.75 69.25 41.625C69.875 42.5 70.125 43.5 70 44.625C69.75 45.625 69.25 46.625 68.375 47.25L51.5 59.625C49.5 61.125 46.875 62 44.375 62H1C0.5 62 0 62.5 0 63C0 63.5 0.5 64 1 64H44.375C47.375 64 50.25 63 52.625 61.25L69.5 48.875C70.875 47.875 71.75 46.5 71.875 44.875C72.125 43.375 71.75 41.75 70.875 40.5Z" fill="#A97C50"/>
</svg>
